<?xml version="1.0" encoding="UTF-8" standalone="no"?>
<!DOCTYPE svg PUBLIC "-//W3C//DTD SVG 1.1//EN" "http://www.w3.org/Graphics/SVG/1.1/DTD/svg11.dtd">
<svg width="100%" height="100%" viewBox="0 0 800 800" version="1.1" xmlns="http://www.w3.org/2000/svg" xmlns:xlink="http://www.w3.org/1999/xlink" xml:space="preserve" xmlns:serif="http://www.serif.com/" style="fill-rule:evenodd;clip-rule:evenodd;stroke-linejoin:round;stroke-miterlimit:1.41421;">
    <g transform="matrix(0.599354,-0.346037,0.586422,0.344803,448.448,469.608)">
        <path d="M217.419,159.881C217.419,154.587 214.204,151.316 209,151.316C195.886,151.316 170.072,151.316 150.672,151.316C145.53,151.316 139.227,154.511 134.12,159.706C129.013,164.902 125.872,171.314 125.872,176.545C125.872,195.823 125.872,221.236 125.872,234.298C125.872,239.591 129.088,242.863 134.291,242.863C147.406,242.863 173.22,242.863 192.62,242.863C197.762,242.863 204.065,239.667 209.172,234.472C214.278,229.277 217.419,222.864 217.419,217.633C217.419,198.355 217.419,172.943 217.419,159.881Z" style="fill:rgb(145,130,168);fill-opacity:0.3;"/>
    </g>
    <g transform="matrix(0.599354,-0.346037,0.586422,0.344803,504.455,311.47)">
        <path d="M217.419,159.881C217.419,154.587 214.204,151.316 209,151.316C195.886,151.316 170.072,151.316 150.672,151.316C145.53,151.316 139.227,154.511 134.12,159.706C129.013,164.902 125.872,171.314 125.872,176.545C125.872,195.823 125.872,221.236 125.872,234.298C125.872,239.591 129.088,242.863 134.291,242.863C147.406,242.863 173.22,242.863 192.62,242.863C197.762,242.863 204.065,239.667 209.172,234.472C214.278,229.277 217.419,222.864 217.419,217.633C217.419,198.355 217.419,172.943 217.419,159.881Z" style="fill:rgb(145,130,168);fill-opacity:0.15;"/>
    </g>
    <g transform="matrix(0.599354,-0.346037,0.586422,0.344803,112.902,597.303)">
        <path d="M217.419,159.881C217.419,154.587 214.204,151.316 209,151.316C195.886,151.316 170.072,151.316 150.672,151.316C145.53,151.316 139.227,154.511 134.12,159.706C129.013,164.902 125.872,171.314 125.872,176.545C125.872,195.823 125.872,221.236 125.872,234.298C125.872,239.591 129.088,242.863 134.291,242.863C147.406,242.863 173.22,242.863 192.62,242.863C197.762,242.863 204.065,239.667 209.172,234.472C214.278,229.277 217.419,222.864 217.419,217.633C217.419,198.355 217.419,172.943 217.419,159.881Z" style="fill:rgb(145,130,168);fill-opacity:0.32;"/>
    </g>
    <g transform="matrix(0.599354,-0.346037,0.586422,0.344803,391.726,595.201)">
        <path d="M217.419,159.881C217.419,154.587 214.204,151.316 209,151.316C195.886,151.316 170.072,151.316 150.672,151.316C145.53,151.316 139.227,154.511 134.12,159.706C129.013,164.902 125.872,171.314 125.872,176.545C125.872,195.823 125.872,221.236 125.872,234.298C125.872,239.591 129.088,242.863 134.291,242.863C147.406,242.863 173.22,242.863 192.62,242.863C197.762,242.863 204.065,239.667 209.172,234.472C214.278,229.277 217.419,222.864 217.419,217.633C217.419,198.355 217.419,172.943 217.419,159.881Z" style="fill:rgb(145,130,168);fill-opacity:0.56;"/>
    </g>
    <g transform="matrix(0.599354,-0.346037,0.586422,0.344803,-90.8612,525.322)">
        <path d="M217.419,159.881C217.419,154.587 214.204,151.316 209,151.316C195.886,151.316 170.072,151.316 150.672,151.316C145.53,151.316 139.227,154.511 134.12,159.706C129.013,164.902 125.872,171.314 125.872,176.545C125.872,195.823 125.872,221.236 125.872,234.298C125.872,239.591 129.088,242.863 134.291,242.863C147.406,242.863 173.22,242.863 192.62,242.863C197.762,242.863 204.065,239.667 209.172,234.472C214.278,229.277 217.419,222.864 217.419,217.633C217.419,198.355 217.419,172.943 217.419,159.881Z" style="fill:rgb(145,130,168);fill-opacity:0.15;"/>
    </g>
    <g transform="matrix(0.599354,-0.346037,0.586422,0.344803,-79.0898,359.794)">
        <path d="M217.419,159.881C217.419,154.587 214.204,151.316 209,151.316C195.886,151.316 170.072,151.316 150.672,151.316C145.53,151.316 139.227,154.511 134.12,159.706C129.013,164.902 125.872,171.314 125.872,176.545C125.872,195.823 125.872,221.236 125.872,234.298C125.872,239.591 129.088,242.863 134.291,242.863C147.406,242.863 173.22,242.863 192.62,242.863C197.762,242.863 204.065,239.667 209.172,234.472C214.278,229.277 217.419,222.864 217.419,217.633C217.419,198.355 217.419,172.943 217.419,159.881Z" style="fill:rgb(145,130,168);fill-opacity:0.15;"/>
    </g>
    <g transform="matrix(1,0,0,1,0,-63.0156)">
        <g transform="matrix(0.967728,0,0,0.967728,12.5579,260.241)">
            <path d="M173.036,260.864C168.212,258.128 165.23,253.009 165.23,247.462C165.23,242.612 165.23,236.64 165.23,231.79C165.23,226.243 168.212,221.124 173.036,218.388C207.678,198.74 347.302,119.55 381.526,100.139C386.241,97.465 392.014,97.465 396.729,100.139C430.953,119.55 570.577,198.74 605.219,218.388C610.044,221.124 613.025,226.243 613.025,231.79C613.025,236.64 613.025,242.612 613.025,247.462C613.025,253.009 610.044,258.128 605.219,260.864C570.577,280.512 430.953,359.702 396.729,379.113C392.014,381.787 386.241,381.787 381.526,379.113C347.302,359.702 207.678,280.512 173.036,260.864Z" style="fill:rgb(86,61,124);fill-opacity:0.501961;"/>
        </g>
        <g transform="matrix(0.967728,0,0,0.967728,12.5579,195.585)">
            <path d="M173.036,260.864C168.212,258.128 165.23,253.009 165.23,247.462C165.23,242.612 165.23,236.64 165.23,231.79C165.23,226.243 168.212,221.124 173.036,218.388C207.678,198.74 347.302,119.55 381.526,100.139C386.241,97.465 392.014,97.465 396.729,100.139C430.953,119.55 570.577,198.74 605.219,218.388C610.044,221.124 613.025,226.243 613.025,231.79C613.025,236.64 613.025,242.612 613.025,247.462C613.025,253.009 610.044,258.128 605.219,260.864C570.577,280.512 430.953,359.702 396.729,379.113C392.014,381.787 386.241,381.787 381.526,379.113C347.302,359.702 207.678,280.512 173.036,260.864Z" style="fill:rgb(86,61,124);fill-opacity:0.74902;"/>
        </g>
        <g transform="matrix(0.967728,0,0,0.967728,12.5579,129.757)">
            <path d="M173.036,260.864C168.212,258.128 165.23,253.009 165.23,247.462C165.23,242.612 165.23,236.64 165.23,231.79C165.23,226.243 168.212,221.124 173.036,218.388C207.678,198.74 347.302,119.55 381.526,100.139C386.241,97.465 392.014,97.465 396.729,100.139C430.953,119.55 570.577,198.74 605.219,218.388C610.044,221.124 613.025,226.243 613.025,231.79C613.025,236.64 613.025,242.612 613.025,247.462C613.025,253.009 610.044,258.128 605.219,260.864C570.577,280.512 430.953,359.702 396.729,379.113C392.014,381.787 386.241,381.787 381.526,379.113C347.302,359.702 207.678,280.512 173.036,260.864Z" style="fill:rgb(86,61,124);"/>
        </g>
        <g transform="matrix(0.866025,-0.5,0.869083,0.4994,167.711,350.133)">
            <path d="M106.158,113.238L106.158,76.985L138.069,76.985C141.109,76.985 144.039,77.238 146.861,77.744C149.683,78.251 152.18,79.155 154.351,80.458C156.522,81.761 158.258,83.57 159.561,85.885C160.863,88.201 161.515,91.168 161.515,94.786C161.515,101.298 159.561,106.002 155.653,108.896C151.746,111.791 146.753,113.238 140.674,113.238L106.158,113.238ZM72.075,50.5L72.075,205.5L147.187,205.5C154.134,205.5 160.9,204.632 167.485,202.895C174.07,201.158 179.931,198.481 185.069,194.863C190.206,191.245 194.295,186.577 197.334,180.861C200.373,175.144 201.893,168.378 201.893,160.563C201.893,150.866 199.541,142.581 194.838,135.707C190.134,128.832 183.006,124.02 173.454,121.27C180.401,117.942 185.648,113.672 189.193,108.462C192.739,103.252 194.512,96.74 194.512,88.924C194.512,81.688 193.318,75.61 190.93,70.689C188.542,65.768 185.177,61.825 180.835,58.858C176.494,55.891 171.284,53.756 165.205,52.454C159.127,51.151 152.397,50.5 145.016,50.5L72.075,50.5ZM106.158,179.015L106.158,136.466L143.279,136.466C150.66,136.466 156.594,138.167 161.081,141.568C165.567,144.969 167.81,150.649 167.81,158.609C167.81,162.662 167.123,165.99 165.748,168.595C164.373,171.2 162.528,173.263 160.212,174.782C157.897,176.302 155.219,177.387 152.18,178.039C149.141,178.69 145.957,179.015 142.628,179.015L106.158,179.015Z" style="fill:white;fill-rule:nonzero;"/>
        </g>
    </g>
</svg>
