<?xml version="1.0" encoding="UTF-8" standalone="no"?>
<!DOCTYPE svg PUBLIC "-//W3C//DTD SVG 1.1//EN" "http://www.w3.org/Graphics/SVG/1.1/DTD/svg11.dtd">
<svg width="100%" height="100%" viewBox="0 0 400 400" version="1.1" xmlns="http://www.w3.org/2000/svg" xmlns:xlink="http://www.w3.org/1999/xlink" xml:space="preserve" xmlns:serif="http://www.serif.com/" style="fill-rule:evenodd;clip-rule:evenodd;stroke-linejoin:round;stroke-miterlimit:1.41421;">
    <g transform="matrix(1.12272,0,0,1.12272,-24.5097,-24.2583)">
        <path d="M223.085,338.181C218.211,346.45 209.327,351.525 199.728,351.525C190.13,351.525 181.246,346.45 176.372,338.181C138.739,274.34 65.06,149.351 26.959,84.716C22.017,76.334 21.947,65.946 26.774,57.498C31.601,49.049 40.585,43.835 50.315,43.835C126.051,43.835 273.406,43.835 349.142,43.835C358.872,43.835 367.856,49.049 372.683,57.498C377.51,65.946 377.44,76.334 372.498,84.716C334.397,149.351 260.718,274.34 223.085,338.181ZM216.429,246.716C212.944,252.628 206.592,256.257 199.728,256.257C192.865,256.257 186.513,252.628 183.028,246.716C163.093,212.898 129.926,156.634 109.759,122.423C106.226,116.429 106.176,109.002 109.627,102.961C113.078,96.92 119.502,93.192 126.46,93.192C166.562,93.192 232.895,93.192 272.997,93.192C279.955,93.192 286.379,96.92 289.83,102.961C293.281,109.002 293.231,116.429 289.698,122.423C269.531,156.634 236.364,212.898 216.429,246.716Z" style="fill:url(#_Linear1);"/>
    </g>
    <defs>
        <linearGradient id="_Linear1" x1="0" y1="0" x2="1" y2="0" gradientUnits="userSpaceOnUse" gradientTransform="matrix(393.737,0,0,333.968,2.85985,210.819)"><stop offset="0" style="stop-color:rgb(103,204,235);stop-opacity:1"/><stop offset="1" style="stop-color:rgb(130,120,222);stop-opacity:1"/></linearGradient>
    </defs>
</svg>
